<?xml version="1.0" standalone="no"?>
<!DOCTYPE svg PUBLIC "-//W3C//DTD SVG 20010904//EN"
 "http://www.w3.org/TR/2001/REC-SVG-20010904/DTD/svg10.dtd">
<svg version="1.0" xmlns="http://www.w3.org/2000/svg"
 width="700.000000pt" height="700.000000pt" viewBox="0 0 700.000000 700.000000"
 preserveAspectRatio="xMidYMid meet">
<metadata>
Created by potrace 1.11, written by Peter Selinger 2001-2013
</metadata>
<g transform="translate(0.000000,700.000000) scale(0.100000,-0.100000)"
fill="#000000" stroke="none">
<path d="M3341 6960 c-84 -24 -175 -72 -766 -410 -53 -30 -418 -236 -470 -265
-27 -15 -131 -73 -230 -130 -154 -87 -1042 -590 -1145 -648 -188 -105 -225
-133 -291 -217 -40 -51 -72 -113 -93 -183 -18 -59 -18 -47 -17 -1768 0 -1529
-4 -1446 62 -1569 54 -101 122 -167 239 -233 57 -31 361 -199 595 -328 271
-149 441 -201 655 -200 152 0 237 15 366 66 168 67 278 180 354 364 66 161 63
86 65 1761 1 833 -3 1526 -7 1539 -17 47 -30 50 -234 51 -174 0 -194 -2 -215
-19 l-24 -19 -5 -1514 -5 -1513 -24 -52 c-39 -87 -143 -170 -236 -187 -89 -17
-220 1 -323 45 -24 11 -89 45 -145 77 -56 33 -124 71 -152 87 -27 15 -102 57
-165 93 -118 67 -128 72 -243 136 -37 21 -73 48 -79 59 -14 27 -19 2965 -5
3010 11 33 26 43 222 152 28 15 131 74 230 130 99 56 200 113 225 127 25 14
198 112 385 218 187 106 374 212 415 235 95 53 314 176 360 203 40 23 395 223
646 365 94 53 182 98 195 101 14 2 50 -10 89 -31 60 -33 184 -102 220 -123 21
-12 580 -327 654 -369 34 -19 149 -83 256 -144 107 -60 215 -121 240 -135 25
-14 71 -40 103 -58 32 -19 59 -34 61 -34 2 0 54 -29 115 -65 62 -36 114 -65
116 -65 2 0 26 -13 53 -29 26 -15 68 -39 93 -53 24 -14 62 -35 84 -48 51 -29
326 -183 479 -269 79 -44 123 -75 132 -93 12 -23 14 -261 14 -1517 l0 -1490
-22 -25 c-19 -20 -229 -142 -608 -354 -25 -14 -123 -69 -219 -124 -95 -54
-175 -98 -177 -98 -3 0 -21 -11 -42 -23 -20 -13 -64 -39 -97 -57 -55 -30 -396
-223 -490 -277 -22 -12 -58 -32 -80 -44 -22 -12 -123 -69 -225 -127 -223 -126
-205 -117 -460 -260 -263 -148 -251 -142 -279 -142 -13 0 -110 50 -215 111
-105 62 -216 125 -246 142 -30 16 -62 36 -71 43 -8 8 -19 14 -22 14 -4 0 -41
21 -83 46 -41 25 -87 47 -102 48 -17 2 -63 -16 -128 -51 -56 -29 -150 -71
-208 -92 -58 -21 -118 -46 -132 -56 l-26 -17 33 -34 c18 -19 36 -34 40 -34 5
0 267 -149 379 -215 27 -16 299 -174 328 -190 10 -5 63 -36 118 -68 134 -76
199 -98 309 -104 146 -9 216 15 465 157 69 40 143 82 165 94 22 13 222 126
445 251 223 126 488 276 590 333 102 57 205 116 230 130 25 14 219 123 431
243 212 120 408 230 435 245 280 155 362 238 413 423 20 72 20 94 20 1610 0
1438 -1 1540 -18 1601 -10 36 -29 88 -43 115 -25 47 -99 141 -125 158 -7 4
-18 13 -25 20 -13 14 -154 95 -443 257 -22 12 -110 62 -195 110 -85 48 -281
158 -435 245 -154 87 -314 177 -355 200 -41 24 -127 72 -190 107 -154 87 -181
102 -349 197 -78 44 -147 81 -151 81 -5 0 -10 3 -12 8 -1 4 -19 15 -38 26 -19
10 -127 70 -240 134 -295 166 -304 171 -368 194 -81 29 -244 33 -331 8z"/>
<path d="M3937 4864 c-1 -1 -29 -5 -62 -9 -32 -3 -62 -8 -65 -10 -3 -2 -23 -6
-45 -9 -72 -11 -189 -46 -275 -83 -320 -136 -493 -386 -493 -713 0 -55 9 -140
19 -172 3 -9 7 -25 9 -36 6 -32 47 -124 72 -162 32 -49 110 -127 161 -162 120
-83 355 -165 552 -194 19 -3 60 -9 90 -14 30 -5 84 -12 120 -16 36 -3 73 -8
83 -10 10 -2 46 -6 80 -9 34 -3 73 -8 87 -10 14 -2 52 -7 85 -10 218 -22 456
-75 559 -123 118 -56 156 -105 162 -211 6 -113 -36 -218 -110 -274 -70 -54
-183 -101 -271 -114 -16 -2 -36 -6 -43 -8 -55 -19 -459 -27 -637 -12 -215 17
-387 80 -481 176 -49 50 -95 138 -114 221 -7 30 -17 72 -22 92 -14 60 -34 65
-248 64 -102 -1 -192 -6 -201 -10 -27 -12 -37 -50 -34 -127 21 -412 294 -703
764 -814 92 -22 107 -25 154 -31 23 -3 48 -7 55 -9 7 -3 45 -7 85 -10 39 -3
95 -8 122 -10 61 -5 321 -5 390 0 44 3 77 6 195 19 142 17 358 83 485 149 229
120 358 284 422 538 13 54 11 275 -3 339 -21 93 -21 91 -39 135 -69 162 -237
288 -490 369 -55 17 -239 61 -295 70 -19 3 -44 7 -55 10 -11 2 -56 9 -100 16
-44 6 -92 13 -106 16 -14 2 -43 6 -65 9 -21 2 -50 7 -64 9 -14 3 -50 8 -80 11
-30 3 -66 7 -80 10 -23 5 -43 8 -125 19 -16 2 -68 12 -115 21 -47 9 -100 19
-119 22 -62 9 -206 59 -248 86 -54 34 -73 72 -80 156 -6 84 22 166 77 221 67
67 210 121 362 137 136 15 446 9 586 -12 51 -7 183 -54 229 -81 90 -52 179
-175 213 -294 36 -129 31 -127 274 -126 l188 2 23 26 c26 30 26 60 -1 214 -23
134 -119 316 -229 430 -121 126 -395 243 -650 278 -22 3 -62 8 -90 12 -41 6
-562 13 -568 8z"/>
</g>
</svg>
